<svg id="Layer_1" data-name="Layer 1" xmlns="http://www.w3.org/2000/svg" viewBox="0 0 130 150"><defs><style>.cls-1{fill:#e6e6e6;}</style></defs><title>Boston2_v4</title><path class="cls-1" d="M64.42,22.89a1.64,1.64,0,0,0,0-3.27,1.64,1.64,0,1,0,0,3.27Z"/><path class="cls-1" d="M68.27,27.4l-.06,0a7.58,7.58,0,0,0-.81-2.2,5.47,5.47,0,0,0-1-1.27A3,3,0,0,0,64.82,23H64a3,3,0,0,0-1.62.85,5.5,5.5,0,0,0-1,1.27,7.88,7.88,0,0,0-.81,2.2l-.06,0a.65.65,0,0,0-.23.54c0,.32.2.56.44.56h0a.38.38,0,0,0,.28-.14.67.67,0,0,0,.17-.36.27.27,0,0,0,.2-.08.21.21,0,0,0,.08-.16.45.45,0,0,0-.23-.35.75.75,0,0,0-.18-.08,7.43,7.43,0,0,1,1-1.89,5,5,0,0,1,.91-1l.1-.07,0,0c-.26.94-.49,2.4-.69,3.37a8,8,0,0,0-.15.8v.1c0,.3-.07.6-.09.89-.05.58-.09,1.17-.11,1.74a22.77,22.77,0,0,0,0,3.2l-.77.17-.39.6.21,0c.58,0,1.16,0,1.7,0H63V35a24.43,24.43,0,0,1,.2-3.83c.08-.56.16-1.13.26-1.69,0-.28.09-.57.15-.84v0h1.65v0c.06.27.11.56.16.84.09.56.18,1.13.25,1.69a24.43,24.43,0,0,1,.2,3.83v.14H66c.54,0,1.12,0,1.7,0l.22,0-.4-.6-.77-.17a24.39,24.39,0,0,0,0-3.2c0-.57-.06-1.16-.11-1.74,0-.29-.06-.59-.1-.89v-.1a8,8,0,0,0-.15-.8c-.19-1-.43-2.43-.69-3.37l0,0,.09.07a4.68,4.68,0,0,1,.91,1,7.43,7.43,0,0,1,1,1.89.75.75,0,0,0-.18.08.41.41,0,0,0-.22.35.2.2,0,0,0,.07.16.27.27,0,0,0,.2.08.67.67,0,0,0,.17.36.38.38,0,0,0,.29.14h0c.23,0,.42-.24.43-.56A.65.65,0,0,0,68.27,27.4Z"/></svg>