<svg xmlns="http://www.w3.org/2000/svg" xmlns:xlink="http://www.w3.org/1999/xlink" width="200" height="400" viewBox="0 0 200 400"><defs><style>.cls-1{fill:url(#radial-gradient);}.cls-2{fill:none;stroke:#fff6b5;stroke-miterlimit:10;stroke-width:2px;}.cls-3{fill:#fff6b5;}</style><radialGradient id="radial-gradient" cx="-460.2" cy="200" r="500" gradientUnits="userSpaceOnUse"><stop offset="0.87" stop-color="#fff"/><stop offset="0.89" stop-color="#fffef7"/><stop offset="0.93" stop-color="#fffce2"/><stop offset="0.97" stop-color="#fff7c0"/><stop offset="1" stop-color="#fff4a3"/></radialGradient></defs><title>Boston2_v2-modified</title><g id="Layer_1" data-name="Layer 1"><circle class="cls-1" cx="-460.2" cy="200" r="500"/><line class="cls-2" x1="141.05" y1="23.27" x2="31.49" y2="23.27"/><polygon class="cls-3" points="136.83 17.72 139.19 23.27 136.83 28.83 150 23.27 136.83 17.72"/><line class="cls-2" x1="141.05" y1="73.77" x2="46.79" y2="73.77"/><polygon class="cls-3" points="136.83 68.21 139.19 73.77 136.83 79.32 150 73.77 136.83 68.21"/><line class="cls-2" x1="141.05" y1="124.26" x2="56.69" y2="124.26"/><polygon class="cls-3" points="136.83 118.7 139.19 124.26 136.83 129.81 150 124.26 136.83 118.7"/><line class="cls-2" x1="141.05" y1="174.75" x2="61.54" y2="174.75"/><polygon class="cls-3" points="136.83 169.2 139.19 174.75 136.83 180.31 150 174.75 136.83 169.2"/><line class="cls-2" x1="141.05" y1="225.25" x2="61.54" y2="225.25"/><polygon class="cls-3" points="136.83 219.69 139.19 225.25 136.83 230.8 150 225.25 136.83 219.69"/><line class="cls-2" x1="141.05" y1="275.74" x2="56.69" y2="275.74"/><polygon class="cls-3" points="136.83 270.19 139.19 275.74 136.83 281.3 150 275.74 136.83 270.19"/><line class="cls-2" x1="141.05" y1="326.23" x2="46.79" y2="326.23"/><polygon class="cls-3" points="136.83 320.68 139.19 326.23 136.83 331.79 150 326.23 136.83 320.68"/><line class="cls-2" x1="141.05" y1="376.73" x2="31.49" y2="376.73"/><polygon class="cls-3" points="136.83 371.17 139.19 376.73 136.83 382.28 150 376.73 136.83 371.17"/></g></svg>