<svg id="Layer_1" data-name="Layer 1" xmlns="http://www.w3.org/2000/svg" viewBox="0 0 130 150"><defs><style>.cls-1{fill:#e6e6e6;}</style></defs><title>Boston2_v1</title><path class="cls-1" d="M64.45,22.77a1.51,1.51,0,1,0-1.51-1.51A1.51,1.51,0,0,0,64.45,22.77Z"/><path class="cls-1" d="M61.35,29.3c.12.3.4.51.63.46s.32-.34.2-.64c.13,0,.23,0,.27-.08s-.09-.26-.34-.36a.92.92,0,0,0-.33-.06,7.26,7.26,0,0,1,.34-2.45,4.38,4.38,0,0,1,.69-1.32,2.33,2.33,0,0,1,.26-.28,21,21,0,0,0-.39,3.16,6.46,6.46,0,0,0,0,.88c0,.3,0,.59,0,.88.05.58.11,1.16.19,1.74a21.46,21.46,0,0,0,.67,3.3l-.93.19-.2.34c.65,0,1.3,0,2,0a21,21,0,0,1-.47-3.86c0-.56,0-1.13,0-1.7q0-.42,0-.84a.76.76,0,0,1,0-.15c.33,0,.67,0,1,0a.76.76,0,0,1,0,.15q0,.42,0,.84c0,.57,0,1.14,0,1.7A20.77,20.77,0,0,1,64.51,35H65c.48,0,.94,0,1.42,0l-.18-.32-.92-.19A21.34,21.34,0,0,0,66,31.22c.07-.57.13-1.15.18-1.73,0-.29,0-.58.06-.88,0-.63,0-1.28-.08-1.91a14.58,14.58,0,0,0-.27-2l.15.17a4.35,4.35,0,0,1,.68,1.32A7.19,7.19,0,0,1,67,28.67a.93.93,0,0,0-.29,0c-.24.09-.39.25-.32.35s.13.08.26.07c-.12.3,0,.57.18.62a.62.62,0,0,0,.62-.44.52.52,0,0,0,0-.51l-.06,0a7.79,7.79,0,0,0,0-2.68,4.57,4.57,0,0,0-.61-1.56,2.75,2.75,0,0,0-1.4-1.16,1,1,0,0,0-.56-.17h-.74a1,1,0,0,0-.39.08v0a2.75,2.75,0,0,0-1.59,1.24,4.81,4.81,0,0,0-.59,1.56,7.62,7.62,0,0,0,0,2.65s-.07,0-.09.08A.49.49,0,0,0,61.35,29.3Z"/></svg>