<svg id="moon" xmlns="http://www.w3.org/2000/svg" width="28" height="28" viewBox="0 0 28 28"><defs><style>.cls-1{fill:#b3b3b3;}.cls-2{fill:#4d4d4d;}</style></defs><title>orbit-diagram-placeholders</title><circle class="cls-1" cx="14" cy="14" r="14"/><path class="cls-2" d="M20.54,8.69c.06,0-.26,3-.29,3.54a9.71,9.71,0,0,0,.18,2.28c.12.64,1.14,2.44,1.07,3S20,19.14,19.42,19.61s-1.23,1-1.88,1.47c1.12,0,1.69-.55,1.71-1.73a12.62,12.62,0,0,1,2.18-3.19c.57-.61,2.25-1.57,2-2.09.47.95-2.23,3.23-2.81,3.41-1.83.6-1,3.5.8,2.9a7.63,7.63,0,0,0,4.63-4.81c.66-1.74.6-4-1.62-4.42-4-.75-10.31,8-8.81,11.6,1.71,4.17,9.24-2.61,9-5.39-.14-1.45-1.22-2.66-1.32-4.18s.69-3.36.26-5A3.1,3.1,0,0,0,19,6.1c-1.77.75-.24,3.33,1.52,2.59Z"/><path class="cls-2" d="M20,7.92a6.69,6.69,0,0,1-2.72-1.74C16,4.79,13.83,6.91,15.17,8.3a9.85,9.85,0,0,0,4,2.51A1.5,1.5,0,0,0,20,7.92Z"/><path class="cls-2" d="M18.25,5a1.5,1.5,0,0,0,0-3,1.5,1.5,0,0,0,0,3Z"/></svg>