<svg xmlns="http://www.w3.org/2000/svg" width="130" height="150" viewBox="0 0 130 150"><defs><style>.cls-1{fill:#ccc;}</style></defs><title>orbit-diagram-placeholders</title><g id="stickfigure"><path class="cls-1" d="M61.53,37.65c.35-1.43.69-2.85,1-4.28.25-1,.51-2.68,1.43-3.36,1.48-1.09,3,1,3.56,2.2a8.38,8.38,0,0,1,.74,5c-.29,1.89,2.6,2.7,2.9.8.62-4-.87-10.66-5.84-11.26-5.19-.63-5.87,6.6-6.72,10.1-.45,1.88,2.44,2.68,2.89.8Z"/><path class="cls-1" d="M67.09,26.42v-3c0-.15.09-.73,0-.59l-.53.54.21-.1-.76.2a10.4,10.4,0,0,1,3.48.82c1.84.59,2.63-2.3.8-2.9a23.94,23.94,0,0,0-2.61-.7,3.17,3.17,0,0,0-2.79.21,2.88,2.88,0,0,0-.79,2.52l0,3a1.5,1.5,0,0,0,3,0Z"/><path class="cls-1" d="M65.91,21.3a15.11,15.11,0,0,0-5.36,1,1.54,1.54,0,0,0-1,1.84,1.51,1.51,0,0,0,1.84,1.05,12.8,12.8,0,0,1,4.57-.88,1.5,1.5,0,0,0,0-3Z"/><path class="cls-1" d="M65.94,18.82c-1.13-.33-2.65-2.41-.78-2.88,1.51-.38.85,2.5.68,3.18-.48,1.87,2.41,2.67,2.89.8.42-1.68.71-3.65-.22-5.22a3.65,3.65,0,0,0-4.69-1.45,4.08,4.08,0,0,0-2.48,4.35,5.2,5.2,0,0,0,3.8,4.11c1.86.55,2.65-2.34.8-2.89Z"/></g></svg>