<svg xmlns="http://www.w3.org/2000/svg" xmlns:xlink="http://www.w3.org/1999/xlink" width="50" height="50" viewBox="0 0 50 50"><defs><style>.cls-1{fill:none;}.cls-2{clip-path:url(#clip-path);}.cls-3{fill:#fff;}</style><clipPath id="clip-path"><circle class="cls-1" cx="-85" cy="170.38" r="50"/></clipPath></defs><title>orbit diagram placeholders</title><g id="Layer_7" data-name="Layer 7"><path class="cls-3" d="M42,18.32c-2.37-2.43-3.26-5.81-6.14-7.83s-6.3-2.2-9.62-2.41c-8-.51-15,.4-18,8.82C6,23.21,5.82,30.73,9.89,36.32c5.26,7.22,12.94,6,20.64,4.31,3.43-.77,7.82-1.1,9.88-4.38,1.46-2.34,1.14-5.3.62-7.86-1.35-6.73-6.69-10.27-13.27-11.06-6-.72-14.39,3-12.79,10.32,1.69,7.76,11.47,7.07,14.7,1.06C33.31,21.9,23,15.84,19.3,22.65l4.77-.95,2.76,3.59q-3.66,4.34-.42,3.86a17.45,17.45,0,0,1,2.37.7c.56.53.54,2.07.66,1.77L32.2,28c-1.88.85-9.39,2.74-11.29,2.08-2.91-1-2.83-6.36-1.53-8.73,1-1.8.62-1.38,3.08-1.45,1.37,0,4.36-.37,5.66.28,2.12,1.05,3.53,4.67,5.39,6.59,5.39,5.55,13.88-2.94,8.49-8.49Z"/></g></svg>