<svg xmlns="http://www.w3.org/2000/svg" xmlns:xlink="http://www.w3.org/1999/xlink" width="130" height="150" viewBox="0 0 130 150"><defs><style>.cls-1{fill:none;}.cls-2{clip-path:url(#clip-path);}.cls-3{fill:#fff;}</style><clipPath id="clip-path"><circle class="cls-1" cx="-155" cy="170.38" r="50"/></clipPath></defs><title>orbit diagram placeholders</title><g id="Layer_6" data-name="Layer 6"><path class="cls-3" d="M60.86,8A19.92,19.92,0,0,0,55.6,17.4c-1,4-.44,8.3-1.8,12.11l2.76-3.59c-5,3.33-10.83,4.53-15.47,8.56-1,.86-2.07,2.58-3.24,3.2s-2.65.44-3.91.71a12.91,12.91,0,0,0-7,4.21A79.4,79.4,0,0,0,16.87,57.08C14,62.44,13.47,68.47,12.52,74.4,11.32,82,22.88,85.21,24.09,77.59c1.13-7.09,1.87-12.89,6-18.91,1.7-2.46,3.81-6.91,6.33-8.42,1.33-.8,3.4-.46,4.89-.95a12.65,12.65,0,0,0,3.91-2.22c2.48-2,4.36-4.32,7.18-5.9,3.23-1.8,7.25-2.7,10.21-4.91,6.37-4.75,1.46-14.42,6.72-19.79S66.27,2.48,60.86,8Z"/><path class="cls-3" d="M34.2,118.29C27,105.17,18.27,87.44,24.7,72.39c3-7-7.33-13.14-10.36-6-8.43,19.73-.24,40.32,9.5,58,3.73,6.77,14.09.72,10.36-6Z"/><path class="cls-3" d="M34.77,130.37A22.79,22.79,0,0,1,48.56,136l2.65-10c-5.75,1.07-11.19-2.81-15.64-5.94L31,131a202.94,202.94,0,0,1,27.85,6.34l-3.59-8.82.61-.32c-5.34,1.47-6.08,10.57,0,11.57s11.65.27,17.57-1.25c5.54-1.44,11.48-2.3,16.86-4.22,9.85-3.52,16.77-11.82,21.69-20.74,9.81-17.74,15.89-43.63-2.34-58.45-5.94-4.83-14.48,3.61-8.48,8.49,13.88,11.29,7.81,30.63.46,43.91-3.7,6.69-8.51,13.3-16.1,15.73-3.79,1.22-7.84,1.72-11.69,2.73C69,127.25,64,129.05,59,128.22v11.57a9.68,9.68,0,0,0,6.56-5.19A6.1,6.1,0,0,0,62,125.78a204.39,204.39,0,0,0-27.85-6.33c-6.69-1-10.41,6.9-4.63,11,7.55,5.3,15.54,8.89,24.89,7.14,4.34-.81,5.91-7.18,2.65-10a36.33,36.33,0,0,0-22.28-9.16c-7.71-.47-7.68,11.54,0,12Z"/><path class="cls-3" d="M111.94,55.48C104.4,44,94,33.31,79.94,30.62c-1.67-.31-3.51-.64-5.19-.81q-2.73-1-1.16,0c.62.74,1,.47,1.11-.82,1.63-2.15,2.48-5.95,2.42-8.57C77,13.6,71.21,9.59,64.81,10.65l5.84,10,.71-.68c5.59-5.35-2.9-13.83-8.49-8.49l-.71.68c-4.7,4.49.34,10.93,5.84,10-3.86.63-2.7-1.51-4,1.38A34.68,34.68,0,0,0,62.55,27a11.86,11.86,0,0,0-.16,7.56c2,5.44,7.52,6.5,12.63,7.33,11.93,1.95,20.14,9.8,26.56,19.62,4.21,6.44,14.6.43,10.36-6.06Z"/><path class="cls-3" d="M62.38,11.05c-.45,9.32,5,16.63,6.37,25.69,1.16,7.61,12.72,4.37,11.57-3.19a48.36,48.36,0,0,0-3.26-11.69c-1.61-3.83-2.89-6.5-2.68-10.81.37-7.72-11.63-7.7-12,0Z"/></g></svg>