<svg xmlns="http://www.w3.org/2000/svg" xmlns:xlink="http://www.w3.org/1999/xlink" width="50" height="50" viewBox="0 0 50 50"><defs><style>.cls-1{fill:none;}.cls-2{clip-path:url(#clip-path);}.cls-3{fill:#b3b3b3;}.cls-4{fill:#4d4d4d;}</style><clipPath id="clip-path"><circle class="cls-1" cx="256.62" cy="170.38" r="50"/></clipPath></defs><title>orbit diagram placeholders</title><g id="Layer_2" data-name="Layer 2"><circle class="cls-3" cx="25" cy="25" r="13.5"/><path class="cls-4" d="M31.33,19.92c-.57.25-.31,4.94-.19,5.59s1.13,2.41,1,2.92-1.49,1.52-2,1.94-1.18,1-1.8,1.41c1.12.12,1.7-.41,1.72-1.59a11.91,11.91,0,0,1,2.09-3.07,11,11,0,0,1,1-.95c1.25-.33,1.53-.7.86-1.11.09,1.14-1.76,3-2.67,3.25-1.83.59-1,3.49.8,2.89a7.43,7.43,0,0,0,4.5-4.67c.65-1.71.57-3.94-1.61-4.34-3.9-.7-10,7.73-8.55,11.27,1.67,4.1,9-2.49,8.75-5.24-.15-1.39-1.18-2.55-1.28-4s.67-3.24.25-4.83a3.05,3.05,0,0,0-4.41-2.05c-1.78.75-.25,3.34,1.51,2.59Z"/><path class="cls-4" d="M30.81,19.08a6.28,6.28,0,0,1-2.6-1.66c-1.34-1.39-3.46.73-2.12,2.12A9.54,9.54,0,0,0,30,22a1.5,1.5,0,0,0,1.84-1,1.52,1.52,0,0,0-1-1.85Z"/><path class="cls-4" d="M29.1,16.37a1.5,1.5,0,0,0,0-3,1.5,1.5,0,0,0,0,3Z"/></g></svg>