<svg xmlns="http://www.w3.org/2000/svg" xmlns:xlink="http://www.w3.org/1999/xlink" width="130" height="150" viewBox="0 0 130 150"><defs><style>.cls-1{fill:none;}.cls-2{clip-path:url(#clip-path);}.cls-3{fill:#0072ff;}.cls-4{fill:#009245;}.cls-5{fill:#39b54a;}.cls-6{fill:#fff;}.cls-7{fill:#ccc;}</style><clipPath id="clip-path"><circle class="cls-1" cx="65" cy="85" r="50"/></clipPath></defs><title>orbit diagram placeholders</title><g id="Layer_3" data-name="Layer 3"><g class="cls-2"><g id="Layer_1" data-name="Layer 1"><circle class="cls-3" cx="65" cy="85" r="50"/><path class="cls-4" d="M64.63,40.52a82.57,82.57,0,0,1,10.88-.79l-1.06-2.56a95,95,0,0,1-10.26,6.92c-2.29,1.43-6.11,3.36-7.68,5.73s-.37,5.46,2.71,4.57l-1.15-2.74-1.55,1.09a1.52,1.52,0,0,0,.76,2.8,25.69,25.69,0,0,0,6.24-.64l-1.85-1.85-.35,1a1.5,1.5,0,0,0,1,1.84l4.48.85-1-1.85-1.3,5.72a1.51,1.51,0,0,0,1,1.84,29.34,29.34,0,0,1,5.36,1.47l-.67-2.51-4.7,3.72c-1,.81-.16,2.61,1.06,2.56A26.2,26.2,0,0,0,75.07,66l-1.16-2.75c.93-.61.75-4.51.23-5.54-1.25-2.45-4.77-2.55-6.56-4.34l.24,1.82,2.43-3.39a1.5,1.5,0,0,0,0-1.52c-2.32-5-12.41-3-16.16-1.57a1.51,1.51,0,0,0,.8,2.9L56,51.38c1.88-.44,1.09-3.33-.79-2.89l-1.07.24.8,2.9a17.31,17.31,0,0,1,8-1.38c4.07.35,4.3.74,2.36,3.44a1.5,1.5,0,0,0,.23,1.82c1.39,1.4,3.84,1.59,5,2.83,1.71,1.79-.24,3.77.3,5.7a2.91,2.91,0,0,0,4.64,1.83c1.34-.88.52-3.38-1.16-2.75A23.9,23.9,0,0,1,66.6,64.7l1.06,2.56,4.71-3.72c1-.77.26-2.16-.67-2.5a29.24,29.24,0,0,0-5.35-1.47l1,1.84L68.7,55.7a1.51,1.51,0,0,0-1-1.84L63.17,53l1,1.84.35-1A1.51,1.51,0,0,0,62.72,52a22.14,22.14,0,0,1-5.44.54L58,55.33l1.55-1.09c1.32-.94.58-3.25-1.16-2.74,3.17-.93,7-4.67,10-6.5a73,73,0,0,0,8.14-5.71,1.51,1.51,0,0,0-1.06-2.56,87.81,87.81,0,0,0-11.68.9c-1.9.26-1.09,3.16.8,2.89Z"/><path class="cls-5" d="M70.23,58l5.19.22-1.07-2.56a66.66,66.66,0,0,1-8.26,7.67,1.5,1.5,0,0,0,.3,2.35,8.61,8.61,0,0,0,5.46,1.5L70.79,64.6l-.75.55a1.5,1.5,0,0,0,.8,2.89,18.08,18.08,0,0,0,7.81-4.34A1.51,1.51,0,0,0,78,61.19l-5.28-.82c-.87-.13-5.66-.2-3-2.14.79-.59,1.15-2.1,0-2.59a11.22,11.22,0,0,0-4.77-1.06l.76,2.8a25.64,25.64,0,0,0,5.21-4,1.52,1.52,0,0,0-1.06-2.56,24.82,24.82,0,0,0-7.79.3l1.16,2.74,4.73-3.64c.78-.6,1.15-2.08,0-2.59A19.36,19.36,0,0,0,62.12,46l.75,2.79L67.3,45.7c.93-.66,1-2.52-.36-2.74l-3.47-.55V45.3c1.8-.74,2.63-1.92,2-3.85L64.38,43.3a50.49,50.49,0,0,1,8-1c3.66-.13,3.57-.27,5.1,3.71.73,1.91.26,3.32,2.75,3.76l-.66-2.5-2.17,2.52a1.53,1.53,0,0,0,.3,2.36l2,1.27V50.85c-2.59,1.83-5.7,4.38-4.82,8,.55,2.25.72,1.5.57,4.32-.07,1.38-.26,1.85.6,3a1.51,1.51,0,0,0,1.29.74l.72-.07-1.06-2.56c1.07-1,.89-1.08.81-3,0-1-.12-2-.25-3a20.77,20.77,0,0,0-1.46-5.8A15.47,15.47,0,0,0,73,48.08c-.66-.7-2.2-1.07-2.17-2.32,0-.83,4.63-3.43,5.32-3.91A1.51,1.51,0,0,0,75,39.11a5.81,5.81,0,0,0-3,1.33,1.55,1.55,0,0,0-.54,2.06l1,1.92.23-1.81C68,46.4,61.81,45.83,56.21,45.25l.76,2.8a15.93,15.93,0,0,0,5.29-5.86A1.52,1.52,0,0,0,60.57,40l-11.5,2.37.79,2.89,2.3-.62-1.84-1.84-.79,2.88A1.52,1.52,0,0,0,51,47.56a39.85,39.85,0,0,0,6.37,0l-1.29-2.26-2.74,4.23a1.52,1.52,0,0,0,.9,2.21,18.32,18.32,0,0,0,6.57.88l-1.5-1.5c-.08,2.25,1,3,2.69,4.15,3.3,2.39,5.15,4.42,1.93,8.19-1.6,1.88-4.15,2.95-6.33,4-1.29.62-.71,3,.76,2.8l5-.66c1.85-.25,2-3,0-3-7.48-.1-18.57-2.47-24.71,2.89l2.12,2.12a6.46,6.46,0,0,1,2.65-1.77L42.33,68l-.11.32,1.84-1-.25-.06L44.17,70,61.56,58.55c.95-.63,1-2.56-.35-2.75-5.1-.69-9.54,1.35-11.91,6A1.52,1.52,0,0,0,51,64L68.1,61.49,66.64,59c-4.19,3.94-11.22,2.16-14.31,7.68a1.52,1.52,0,0,0,1.7,2.2,129.11,129.11,0,0,1,34.66-3.43,1.51,1.51,0,0,0,1.5-1.5c-.2-2.62-1.37-4.18-4-4.76A1.5,1.5,0,0,0,85,61.91l2.85,1.85c1.5,1,2.89-1.13,1.82-2.36a25.83,25.83,0,0,0-7-5.65,1.51,1.51,0,0,0-1.81,2.36l10.22,9.64,1.46-2.51a54.45,54.45,0,0,1-9.11-4.12A1.5,1.5,0,0,0,82,63.71a50.35,50.35,0,0,0,6.24,3.72l1.51-2.59L81,60.73l-1.15,2.74,11.69,2.16a1.51,1.51,0,0,0,1.16-2.74l-7.61-4.66c-1.49-.92-3,1.12-1.82,2.35L90,67.87a1.51,1.51,0,0,0,2.51-1.46L91.84,64l-2.51,1.46,3.36,3,1.82-2.36a36.92,36.92,0,0,0-10.43-4.41,1.51,1.51,0,0,0-1.84,1.84c.44,1.29,2.2,4.5,1.82,5.82l1.45-1.1-.59,0,1.45,1.1-.15-.45-2.75,1.16,1.36,2.14c.62,1,2.55,1,2.74-.36q2.82-3,3.52-.77a4.23,4.23,0,0,1,.53,2.17c.33,1.59.53,3.23.8,4.84.3,1.84,2.74,1.11,2.94-.4l.62-2H93.39l.9,1.67a1.5,1.5,0,0,0,2.94-.4c.12-3.72.35-4.86-1.73-7.9a52.34,52.34,0,0,0-5.68-6.93A51.71,51.71,0,0,0,73.44,51a1.57,1.57,0,0,0-1.82.24c-3.62,3.41-9,3.17-13.6,4.33a51,51,0,0,0-11.9,4.82l2.2,1.7,1.44-2.54L47.4,57.72c-1.83,2.85-8,16-12.52,13.07v2.59a100.34,100.34,0,0,0,19-11.88c4.5-3.59,9.42-7.79,8.94-14.06A1.53,1.53,0,0,0,60.94,46a14.65,14.65,0,0,0-10,9.6c-.4,1.14.81,2.07,1.84,1.84a102.29,102.29,0,0,0,17-5.33c1.76-.72,1-3.62-.8-2.89a103.43,103.43,0,0,1-17,5.33l1.84,1.84a11.55,11.55,0,0,1,7.88-7.5l-1.89-1.44C60.34,54,52.71,58.85,48,62.21a99.86,99.86,0,0,1-14.65,8.58,1.52,1.52,0,0,0,0,2.59C41.05,78.47,47.07,63.77,50,59.24c.91-1.42-1.21-3.1-2.35-1.82a9.57,9.57,0,0,0-2.21,3.86A1.51,1.51,0,0,0,47.63,63a51.49,51.49,0,0,1,16.15-5.5c3.78-.67,7.1-1.43,10-4.12l-1.82.23C80.79,57.45,94.59,66.12,94.23,77l3-.4A8.38,8.38,0,0,0,96,74.18a1.52,1.52,0,0,0-2.59,0,8.94,8.94,0,0,0-1,3.53l3-.39c-.65-3.93.13-8.72-4.34-9.86-3-.78-5.83.37-6.29,3.61l2.74-.36-1.36-2.14c-.87-1.38-3.3-.52-2.74,1.16l.15.45a1.54,1.54,0,0,0,1.45,1.1l.59,0A1.57,1.57,0,0,0,87,70.13c.7-2.4-1.06-5.2-1.82-7.41l-1.84,1.85A34.79,34.79,0,0,1,93,68.68c1.42.88,3.1-1.2,1.81-2.35l-3.36-3a1.52,1.52,0,0,0-2.51,1.46l.64,2.42,2.5-1.46-6.69-7.29-1.81,2.36,7.6,4.66,1.16-2.74L80.65,60.58c-1.55-.29-2.81,2-1.16,2.74l8.75,4.11c1.72.81,3.25-1.71,1.51-2.59a51.1,51.1,0,0,1-6.24-3.72L82,63.71a58.43,58.43,0,0,0,9.82,4.42,1.51,1.51,0,0,0,1.46-2.5L83.06,56l-1.82,2.35a24.06,24.06,0,0,1,6.35,5.18l1.81-2.35-2.85-1.85L85.4,62.06l1.79,1.87,1.5-1.5A132.23,132.23,0,0,0,53.23,66l1.69,2.2c2.49-4.45,10.1-3.55,13.84-7.07,1.2-1.13-.1-2.71-1.46-2.51L50.19,61.13l1.7,2.2a7.91,7.91,0,0,1,8.52-4.63L60.05,56,42.66,67.38A1.52,1.52,0,0,0,43,70.12l.26.07a1.54,1.54,0,0,0,1.84-1l.11-.32a1.54,1.54,0,0,0-1-1.85c-2-.82-4.24,1.35-5.56,2.54s.67,3.38,2.12,2.12c3.29-2.88,8.06-2.19,12.08-2.14l10.51.13v-3l-5,.66.76,2.79c4.15-2,8.9-4.62,9.42-9.72a7.62,7.62,0,0,0-.82-4.52c-.88-1.52-5.45-3.53-5.41-4.68a1.51,1.51,0,0,0-1.5-1.5A16.45,16.45,0,0,1,55,48.88l.9,2.2,2.74-4.24a1.51,1.51,0,0,0-1.3-2.25,39.85,39.85,0,0,1-6.37,0l1.45,1.9.79-2.89a1.51,1.51,0,0,0-1.84-1.84l-2.3.62c-1.88.5-1.09,3.28.79,2.89l11.51-2.37-1.7-2.2a12.85,12.85,0,0,1-4.21,4.79,1.51,1.51,0,0,0,.75,2.79c6.62.68,13.2.87,18.59-3.52A1.51,1.51,0,0,0,75,42.91L74,41,73.47,43l2.32-1-1.15-2.74c-2,1.4-7.06,3.89-7.25,6.74-.08,1.28.61,1.89,1.38,2.74,2.1,2.31,4,2.91,5.11,6.21.49,1.48.13,16.38,5.31,11.49.88-.84.26-2.7-1.06-2.56,1.2-.13,1.25-2.33,1.25-3.18,0-.4-.52-.74-.58-1.11-.41-2.86,0-4.41,2.48-6.15a1.52,1.52,0,0,0,0-2.59l-2-1.27.3,2.35,2.17-2.52c.67-.78.54-2.3-.66-2.51-.23,0,.06-4.48-.15-5a4.26,4.26,0,0,0-3-2.29c-4.34-1.31-10-.07-14.35.77a1.52,1.52,0,0,0-1,1.85l.14.16c-1.18.48-1.65,2.63,0,2.89l3.48.55-.36-2.74-4.43,3.13a1.52,1.52,0,0,0,.76,2.8l4.26,1.19V47.64l-4.74,3.64A1.51,1.51,0,0,0,62.8,54a21.1,21.1,0,0,1,7-.19l-1.06-2.56a22.82,22.82,0,0,1-4.6,3.52,1.51,1.51,0,0,0,.75,2.79l3.26.65V55.64c-1.7,1.26-4,3.4-2.38,5.69,1.83,2.66,8.68,2.33,11.43,2.76l-.67-2.51A14.59,14.59,0,0,1,70,65.15l.8,2.89a3.54,3.54,0,0,0,2.07-1.32,1.52,1.52,0,0,0-1.06-2.56,4.79,4.79,0,0,1-3.94-1.09l.3,2.36a67.47,67.47,0,0,0,8.27-7.67,1.52,1.52,0,0,0-1.06-2.56L70.23,55c-1.93-.08-1.92,2.92,0,3Z"/><path class="cls-5" d="M65,67.72c7.72,0,7.73-12,0-12s-7.73,12,0,12Z"/><path class="cls-5" d="M70.12,46.08,60,49l4.62,11a53.46,53.46,0,0,1,10-4.07l-5.83-10C59,55.12,46.92,61.29,35,67.39l7.28,9.42a93.91,93.91,0,0,0,21-23.6c2.27-3.6-.62-9.5-5.18-9A21.4,21.4,0,0,0,45,49.91l9.43,7.27a21,21,0,0,1,17-11.63c6.23-.49,8.74-10.64,1.6-11.79a42.69,42.69,0,0,0-26.51,3.89L52.59,48A48.57,48.57,0,0,1,65,43.23c.89-.21,5.45-1.59,6.18-.68-.17-.21-.54.88-1,1.72-1.58,3.21-3,6.37-2.33,10,.67,3.46,4.1,6.2,2.33,9.88a6.09,6.09,0,0,0,5.18,9,12.44,12.44,0,0,1,10.82,9.14l10-5.83A44.54,44.54,0,0,0,79,66.18c-5.48-1.75-13-.52-17.75-3.88l-1.43,11a138.92,138.92,0,0,1,28.06-2.21c7.72.16,7.72-11.84,0-12a154.49,154.49,0,0,0-31.25,2.64c-5.57,1-5.22,8.27-1.44,11,4.8,3.43,10.29,3,15.84,3.92A31.14,31.14,0,0,1,87.73,85c4.26,4,11.73,0,10-5.84-3-10.36-11.77-17.08-22.39-18l5.18,9a18.48,18.48,0,0,0,2.11-9.86,16.94,16.94,0,0,0-1-4.33c-.25-.7-2-3.3-2-4,0-1.56,2.23-4.37,2.76-5.94a11.64,11.64,0,0,0,0-8.18c-5.53-14.11-26.87-5.26-35.89-.34C39.7,41.37,45.72,51.39,52.59,48a28.59,28.59,0,0,1,17.26-2.67l1.59-11.79c-11.6.92-21.9,7.15-27.36,17.57a6,6,0,0,0,9.43,7.27,7.77,7.77,0,0,1,4.59-2.21l-5.18-9A84.54,84.54,0,0,1,33.78,68.33c-5.57,4.42,1.52,12.36,7.27,9.42,12.87-6.58,25.61-13.42,36.21-23.41,4.36-4.11-.14-11.72-5.84-10a69.09,69.09,0,0,0-12.81,5.28c-6,3.22-1.9,12.85,4.62,11l10.09-2.91c7.4-2.13,4.25-13.71-3.2-11.57Z"/><path class="cls-5" d="M90.09,92.06c-2.56,11-14.59,15-24.7,15.88-9.53.79-21.25-1.84-24.58-12.07-1.58-4.87-8.22-6-11-1.43q4.76-.6,2-2.78c-3.77-4.62-12,.35-10,5.84,2,5.73,4.35,12.71,8.57,17.24s12.3,4.79,18.11,5.56c7.06.94,7.58-9.7,1.6-11.78L44.6,106.6c-4.7-1.64-8.12,3.26-7.38,7.38a18.86,18.86,0,0,0,10.9,13.6,25.6,25.6,0,0,0,9.63,2.25c3.72.18,7.46-1,11.14-.59,3.21.35,5.24,1,8.42-.1,3-1,5.71-1.17,8.82-1.61a28.92,28.92,0,0,0,17.09-9L93,114.25h-.07l9.43,7.27a31.67,31.67,0,0,0,3.56-10.34c.67-4.42-2.57-8.62-7.38-7.38A25.57,25.57,0,0,0,87.35,110l8.49,8.48a120.61,120.61,0,0,1,11-10.94H98.33s-9.15,6.77-10.59,7.64a81,81,0,0,1-13.48,6.45c-4.62,1.73-9.72,3.79-14.67,4.21-5.4.46-9.9-2.46-14-5.6-2.11-1.6-1.7-2.46-2.7,1.31-1.07,4-.4,2.72,2.68,2.17,2.6-.47,5.2-.87,7.81-1.24,5.23-.74,10.48-1.35,15.71-2.09,10.68-1.51,21-3.8,30.87-8.12l-7.27-9.42a57.05,57.05,0,0,1-7.18,5.61c-6.42,4.24-.42,14.63,6,10.36a76.47,76.47,0,0,0,9.61-7.49c5.43-5-1.47-11.94-7.27-9.42-14.56,6.33-30.83,7-46.32,9.38-5.88.89-15.91,1.4-15.65,9.6.2,6.28,8.79,11.15,13.73,13.71,13.68,7.06,29.61.39,42.39-5.92,9.19-4.53,31-17.38,18.81-29.62a6.13,6.13,0,0,0-8.49,0,119.34,119.34,0,0,0-11,10.94c-5.09,5.78,2.76,13.74,8.49,8.48a12.76,12.76,0,0,1,5.87-3.08L94.33,108A22.18,22.18,0,0,1,92,115.45c-3.15,5.89,4.52,12.27,9.43,7.27a11.78,11.78,0,0,0,3.58-8.47c.2-5.15-6.73-8-10.24-4.24a17.84,17.84,0,0,1-10.93,5.8c-2.06.29-4.15.28-6.2.68s-3.55,1.17-5.48,1.11c-4.52-.15-9,.38-13.52.24-4.78-.14-8.93-2-9.82-7l-7.38,7.38,5.48,1.92,1.59-11.79c-3.19-.42-7.92-.38-10-2.83-2.48-2.88-3.84-7.67-5.08-11.16l-10,5.84c4.53,5.55,12.65,7.33,16.87.35l-11-1.44c5,15.39,20.88,22.08,36.15,20.88s32.43-8.16,36.27-24.69c1.75-7.51-9.82-10.72-11.57-3.19Z"/><path class="cls-6" d="M64.48,83.59a22,22,0,0,0,4.9-6.2c2.84-5.24-2.89-11.23-8.2-8.21a112.17,112.17,0,0,0-14.57,9.95c-5.14,4.09.61,11,5.83,10a31,31,0,0,0,3.86-.75l1.28-.24q2.37-.27-2.41-1.74l-.61-4.62a16.64,16.64,0,0,0-.91,4.54,6.09,6.09,0,0,0,6,6c5.72-.07,10.68-2.78,16.26-3.3L71.67,78.81a80,80,0,0,1-8.94,6c-6.83,4-.85,13.37,6.05,10.36l8-3.49-7.27-9.43L63,88.44a6.08,6.08,0,0,0,0,8.48,7,7,0,0,0,3.28,2.23c2.66.73-.56-3.65-1.08-1.24-.91,4.28,2.78,8.82,7.38,7.39a29,29,0,0,0,10.82-6.13c4.6-4-.28-11.61-5.83-10a37.7,37.7,0,0,0-7.51,3.06l7.27,9.43,2.29-3c2.59-3.35,2.19-8.84-2.65-10,2.2.54,1.64,1.67,2.61-1.21.49-1.43.93-2.86,1.29-4.32a69.1,69.1,0,0,0,1.39-8.7c.42-3.9-4.17-6.81-7.6-5.79a44.76,44.76,0,0,0-13,6.19c-3.77,2.64-3.93,7.75,0,10.36l1.91,1.27-2.76-6.78C60,82.4,57.61,84.6,56.09,87a59.47,59.47,0,0,0-4.4,8.91H63.26a49.4,49.4,0,0,0-3.1-7.25c-3.61-6.84-14-.78-10.37,6a29,29,0,0,1,1.9,4.39c2,6,9.34,5.36,11.57,0,2.43-5.8,7.28-10.26,9.12-16.26a6.12,6.12,0,0,0-2.76-6.77l-1.9-1.27V85.16a34.58,34.58,0,0,1,10.12-5L70.25,74.4c-.88,8.06-9.19,22.7,3.52,25.81l-2.65-10-2.29,3c-4,5.15.85,12.86,7.27,9.42a22.22,22.22,0,0,1,4.65-1.85l-5.84-10a14.57,14.57,0,0,1-5.53,3l7.38,7.38c.64-3,.95-6-.58-8.85a8.11,8.11,0,0,0-2.64-2.91,4.58,4.58,0,0,0-2-1.08q-2.06-.77,0,.18v8.48L78,90.72c5.32-5-1.43-12-7.27-9.43l-8,3.5,6.05,10.36A102.06,102.06,0,0,0,80.15,87.3c4-3.14.73-10.71-4.24-10.25-5.53.52-10.76,3.23-16.26,3.3l6,6c0,1.86,0,.61.36-.84a7.49,7.49,0,0,0,.23-2.9,7.3,7.3,0,0,0-3.66-5.38c-4-2.33-9.18-.44-13.33.36l5.84,10a93.77,93.77,0,0,1,12.14-8.08L59,71.33a12.15,12.15,0,0,1-3,3.77c-5.8,5.12,2.71,13.58,8.49,8.49Z"/></g></g></g><g id="Layer_4" data-name="Layer 4"><path class="cls-7" d="M61.53,37.49c.35-1.43.69-2.86,1-4.28.25-1,.51-2.69,1.43-3.36,1.48-1.1,3,1,3.56,2.2a8.34,8.34,0,0,1,.74,5c-.29,1.89,2.6,2.71,2.9.8.62-4-.87-10.66-5.84-11.26-5.19-.62-5.87,6.6-6.72,10.11-.45,1.87,2.44,2.67,2.89.8Z"/><path class="cls-7" d="M67.09,26.25v-3c0-.15.09-.73,0-.6l-.53.54.21-.1-.76.21a10.15,10.15,0,0,1,3.48.81c1.84.6,2.63-2.3.8-2.89a26.5,26.5,0,0,0-2.61-.71,3.24,3.24,0,0,0-2.79.21,2.9,2.9,0,0,0-.79,2.53l0,3a1.5,1.5,0,0,0,3,0Z"/><path class="cls-7" d="M65.91,21.13a15.11,15.11,0,0,0-5.36,1,1.54,1.54,0,0,0-1,1.85,1.5,1.5,0,0,0,1.84,1,12.8,12.8,0,0,1,4.57-.88,1.5,1.5,0,0,0,0-3Z"/><path class="cls-7" d="M65.94,18.65c-1.13-.33-2.65-2.41-.78-2.88,1.51-.38.85,2.51.68,3.19-.48,1.87,2.41,2.67,2.89.79.42-1.68.71-3.65-.22-5.22a3.64,3.64,0,0,0-4.69-1.44,4.06,4.06,0,0,0-2.48,4.34,5.21,5.21,0,0,0,3.8,4.12c1.86.55,2.65-2.35.8-2.9Z"/></g></svg>