<svg id="Layer_3" data-name="Layer 3" xmlns="http://www.w3.org/2000/svg" xmlns:xlink="http://www.w3.org/1999/xlink" width="150" height="150" viewBox="0 0 150 150"><defs><style>.cls-1{fill:none;}.cls-2{clip-path:url(#clip-path);}.cls-3{fill:#0072ff;}.cls-4{fill:#009245;}.cls-5{fill:#39b54a;}.cls-6{fill:#fff;}</style><clipPath id="clip-path"><circle class="cls-1" cx="75" cy="75" r="50"/></clipPath></defs><title>orbit diagram placeholders</title><g class="cls-2"><g id="Layer_1" data-name="Layer 1"><circle class="cls-3" cx="75" cy="75" r="50"/><path class="cls-4" d="M75.45,30.55a80.79,80.79,0,0,1,10.88-.8l-1.06-2.56a94,94,0,0,1-10.26,7c-2.29,1.45-6.11,3.39-7.68,5.77S67,45.42,70,44.52l-1.16-2.75-1.55,1.11a1.51,1.51,0,0,0,.76,2.79A25.11,25.11,0,0,0,74.33,45l-1.84-1.85-.35,1a1.5,1.5,0,0,0,1,1.84l4.49.85-1-1.84-1.3,5.75a1.52,1.52,0,0,0,1,1.85,29.13,29.13,0,0,1,5.36,1.47l-.66-2.5-4.71,3.74c-1,.82-.16,2.61,1.06,2.56a26,26,0,0,0,8.48-1.69l-1.16-2.74c1-.68.68-4.77.11-5.74-1.42-2.44-4.66-2.22-6.44-4.22l.23,1.82,2.44-3.42a1.53,1.53,0,0,0,0-1.51c-2.31-5-12.41-3.05-16.16-1.58a1.5,1.5,0,0,0,.79,2.89l1.07-.25c1.88-.43,1.08-3.33-.8-2.89l-1.06.25.79,2.89a17.47,17.47,0,0,1,8-1.39c4.08.36,4.3.78,2.36,3.49a1.52,1.52,0,0,0,.24,1.82c1.27,1.43,2.67,1.49,4.17,2.51,2.6,1.78.85,3.13,1,5.41.2,2.59,2.59,4,4.78,2.51,1.33-.89.52-3.38-1.16-2.75a23.45,23.45,0,0,1-7.68,1.59l1.06,2.56,4.71-3.74c1-.77.27-2.16-.66-2.51a30,30,0,0,0-5.36-1.48l1,1.85,1.3-5.75A1.52,1.52,0,0,0,78.46,44L74,43.15,75,45l.35-1a1.51,1.51,0,0,0-1.84-1.85,21.74,21.74,0,0,1-5.45.54l.76,2.8,1.55-1.11c1.3-.93.58-3.25-1.16-2.74,3.16-.92,7.06-4.72,10-6.56a73.3,73.3,0,0,0,8.14-5.75,1.52,1.52,0,0,0-1.06-2.56,89.38,89.38,0,0,0-11.68.9c-1.9.28-1.09,3.17.8,2.9Z"/><path class="cls-5" d="M76.93,48.13l5.18.22-1.06-2.56a67.1,67.1,0,0,1-8.27,7.72,1.52,1.52,0,0,0,.31,2.36,8.53,8.53,0,0,0,5.46,1.51l-1.06-2.56-.76.55a1.51,1.51,0,0,0,.8,2.9,18.24,18.24,0,0,0,7.81-4.37,1.52,1.52,0,0,0-.66-2.51l-5.28-.83c-.89-.13-5.69-.2-3.05-2.18.78-.59,1.15-2.09,0-2.59a11.29,11.29,0,0,0-4.77-1.06l.75,2.8a25.8,25.8,0,0,0,5.22-4A1.53,1.53,0,0,0,76.49,41a24.87,24.87,0,0,0-7.8.3l1.46,2.51,4.74-3.66a1.51,1.51,0,0,0-.31-2.36,19.3,19.3,0,0,0-5.77-1.61l.76,2.79L74,35.76c.92-.65,1-2.52-.36-2.74l-3.48-.55v2.89c1.81-.75,2.63-1.92,2-3.86l-1.05,1.84a52.74,52.74,0,0,1,8-1c.88,0,2.57-.33,3.39,0l2.1,2.22a4.19,4.19,0,0,0-.37,1.33c.36,2.06.32,3.55,2.73,4l-.66-2.51-2.18,2.54a1.53,1.53,0,0,0,.3,2.36l2,1.29V41c-2.6,1.84-5.7,4.4-4.82,8,.56,2.26.72,1.5.57,4.35-.07,1.39-.25,1.86.6,3.07a1.51,1.51,0,0,0,1.3.74l.71-.08-1.06-2.56c1.36-1.29.84-3.83.56-6a20.61,20.61,0,0,0-1.46-5.84,15.75,15.75,0,0,0-3.17-4.5c-.67-.72-2.2-1.07-2.17-2.35,0-.85,4.62-3.45,5.32-3.94a1.51,1.51,0,0,0-1.15-2.74,5.86,5.86,0,0,0-3,1.34,1.54,1.54,0,0,0-.53,2.06l1,1.94.24-1.82c-4.66,3.82-10.86,3.24-16.47,2.66l.75,2.8A16,16,0,0,0,69,32.23,1.52,1.52,0,0,0,67.26,30l-11.5,2.38.8,2.89,2.3-.62L57,32.84l-.79,2.9a1.52,1.52,0,0,0,1.44,1.9,38.71,38.71,0,0,0,6.37,0l-1.29-2.25L60,39.67a1.52,1.52,0,0,0,.9,2.21,18.15,18.15,0,0,0,6.58.88L66,41.26c-.09,2.26,1,3,2.68,4.18C72,47.85,73.8,49.9,70.59,53.7c-1.6,1.9-4.14,3-6.32,4-1.29.62-.72,3,.75,2.8l5-.67c1.85-.24,2-3,0-3-7.48-.09-18.59-2.47-24.71,2.91l2.12,2.12a6.58,6.58,0,0,1,2.65-1.78l-1-1.84-.11.32,1.85-1-.26-.06.36,2.74L68.26,48.7c.95-.63,1-2.54-.36-2.74A10.93,10.93,0,0,0,56,52a1.52,1.52,0,0,0,1.69,2.2L74.8,51.66l-1.46-2.5c-4.19,4-11.24,2.19-14.31,7.73a1.51,1.51,0,0,0,1.69,2.2,128.36,128.36,0,0,1,34.66-3.45,1.5,1.5,0,0,0,1.5-1.5c-.2-2.62-1.4-4.21-4-4.79a1.51,1.51,0,0,0-1.16,2.74L94.58,54c1.5,1,2.89-1.13,1.82-2.35a25.6,25.6,0,0,0-7-5.69,1.5,1.5,0,0,0-1.82,2.35L97.85,58l1.46-2.5a54.93,54.93,0,0,1-9.1-4.15,1.5,1.5,0,0,0-1.52,2.59,52.55,52.55,0,0,0,6.24,3.74l1.51-2.59L87.7,50.92l-1.16,2.74,11.69,2.18a1.51,1.51,0,0,0,1.16-2.74l-7.61-4.7c-1.49-.92-2.94,1.13-1.82,2.36l6.69,7.34a1.52,1.52,0,0,0,2.51-1.46l-.63-2.44L96,55.66l3.36,3,1.82-2.36a37.06,37.06,0,0,0-10.42-4.44,1.51,1.51,0,0,0-1.85,1.84c.45,1.31,2.21,4.52,1.82,5.86l1.45-1.1-.59.05,1.45,1.1-.15-.46-2.74,1.16,1.35,2.16c.62,1,2.55,1,2.74-.36L98,61.91l.4,2.44.67,4.07c.3,1.83,2.74,1.1,2.94-.4l.62-2h-2.59l.9,1.69a1.51,1.51,0,0,0,3-.4c.12-3.73.34-4.89-1.73-7.95A50.73,50.73,0,0,0,80.13,41.11a1.57,1.57,0,0,0-1.82.24c-3.62,3.43-9,3.2-13.59,4.37a51,51,0,0,0-11.91,4.85L55,52.26l1.43-2.55-2.36-1.82c-1.81,2.84-8,16.15-12.52,13.16v2.59a100.4,100.4,0,0,0,19-12c4.51-3.61,9.42-7.86,8.94-14.15a1.52,1.52,0,0,0-1.9-1.45,14.7,14.7,0,0,0-10,9.65c-.4,1.15.81,2.08,1.85,1.85a102.62,102.62,0,0,0,17-5.37c1.76-.72,1-3.63-.8-2.89a102,102,0,0,1-17,5.37l1.84,1.84A11.59,11.59,0,0,1,68.43,39l-1.9-1.44C67,44.19,59.45,49,54.7,52.41a98.72,98.72,0,0,1-14.64,8.64,1.51,1.51,0,0,0,0,2.59c7.69,5.14,13.73-9.71,16.62-14.24.91-1.41-1.21-3.1-2.35-1.81a9.65,9.65,0,0,0-2.21,3.88,1.52,1.52,0,0,0,2.21,1.69,51.45,51.45,0,0,1,16.14-5.55c3.78-.67,7.11-1.43,10-4.14l-1.81.23c8.91,3.92,22.66,12.67,22.31,23.57l2.94-.4a8.07,8.07,0,0,0-1.2-2.4,1.51,1.51,0,0,0-2.59,0,9.2,9.2,0,0,0-1,3.55l3-.4c-.63-3.87.12-8.82-4.34-9.92-3.06-.75-5.83.36-6.29,3.63L94.11,61l-1.35-2.15c-.88-1.39-3.3-.52-2.74,1.15l.15.46a1.52,1.52,0,0,0,1.44,1.1l.59-.05a1.57,1.57,0,0,0,1.45-1.1c.69-2.42-1.07-5.23-1.83-7.46L90,54.77a34.61,34.61,0,0,1,9.71,4.14c1.43.89,3.1-1.2,1.82-2.35l-3.37-3A1.51,1.51,0,0,0,95.64,55l.63,2.43L98.78,56l-6.69-7.33L90.27,51l7.6,4.7L99,53,87.34,50.77c-1.55-.29-2.8,2-1.16,2.74l8.75,4.14c1.73.82,3.25-1.7,1.51-2.59a52.42,52.42,0,0,1-6.23-3.74l-1.52,2.59a59.11,59.11,0,0,0,9.83,4.45A1.51,1.51,0,0,0,100,55.85L89.75,46.14,87.93,48.5a23.86,23.86,0,0,1,6.35,5.22l1.82-2.36L93.25,49.5l-1.16,2.74,1.79,1.9,1.5-1.5A131,131,0,0,0,59.92,56.2l1.7,2.2c2.48-4.47,10.1-3.58,13.84-7.12,1.19-1.13-.1-2.71-1.46-2.51L56.89,51.33l1.69,2.2a8,8,0,0,1,8.52-4.68l-.36-2.74L49.35,57.62a1.52,1.52,0,0,0,.36,2.74l.25.07a1.53,1.53,0,0,0,1.84-1l.12-.33a1.54,1.54,0,0,0-1.05-1.84c-2-.83-4.25,1.36-5.57,2.55s.68,3.39,2.12,2.12c3.3-2.89,8-2.21,12.09-2.16l10.5.13v-3l-5,.67.76,2.79c4.17-2,8.91-4.67,9.42-9.78A7.64,7.64,0,0,0,74.38,46c-.88-1.53-5.45-3.54-5.4-4.72a1.52,1.52,0,0,0-1.5-1.5A16.17,16.17,0,0,1,61.7,39l.89,2.21,2.74-4.27A1.51,1.51,0,0,0,64,34.66a38.71,38.71,0,0,1-6.37,0l1.45,1.9.79-2.91a1.51,1.51,0,0,0-1.84-1.84l-2.3.62c-1.88.51-1.08,3.28.8,2.89l11.5-2.38-1.7-2.2a12.93,12.93,0,0,1-4.21,4.82,1.51,1.51,0,0,0,.76,2.79c6.61.69,13.2.88,18.59-3.54A1.52,1.52,0,0,0,81.73,33L80.7,31l-.54,2,2.33-1L81.33,29.3c-2,1.41-7.06,3.92-7.25,6.78-.08,1.28.62,1.89,1.39,2.75,2.1,2.33,4,2.94,5.1,6.26.48,1.45.14,16.49,5.31,11.56.88-.83.26-2.7-1.06-2.56,1.2-.12,1.26-2.36,1.25-3.2,0-.4-.52-.74-.57-1.12-.42-2.88,0-4.45,2.47-6.2A1.52,1.52,0,0,0,88,41l-2-1.29.3,2.35,2.18-2.54A1.52,1.52,0,0,0,87.74,37c-.44-.07.17-4.17-.08-4.84a4.05,4.05,0,0,0-2.47-2.32c-4.26-1.73-10.57-.23-14.92.62a1.51,1.51,0,0,0-1,1.85l.13.17c-1.17.49-1.65,2.63,0,2.89l3.48.56-.36-2.75-4.43,3.16a1.52,1.52,0,0,0,.76,2.8l4.26,1.2L72.77,38,68,41.64c-1.3,1,.17,2.75,1.46,2.5a21.15,21.15,0,0,1,7-.19l-1.06-2.56a23,23,0,0,1-4.61,3.55,1.51,1.51,0,0,0,.76,2.79l3.25.65V45.79c-1.69,1.27-4,3.42-2.37,5.72,1.82,2.66,8.67,2.34,11.42,2.77l-.66-2.5a14.66,14.66,0,0,1-6.49,3.59l.8,2.9a3.61,3.61,0,0,0,2.08-1.33,1.52,1.52,0,0,0-1.06-2.56,4.8,4.8,0,0,1-4-1.1l.3,2.36a66.47,66.47,0,0,0,8.27-7.73,1.52,1.52,0,0,0-1.06-2.56l-5.18-.22c-1.93-.08-1.93,2.92,0,3Z"/><path class="cls-5" d="M77.26,57.91c7.72,0,7.73-12,0-12s-7.74,12,0,12Z"/><path class="cls-5" d="M81.92,36.2,71.83,39.13l4.63,11a52.4,52.4,0,0,1,10-4.11L80.57,36c-9.82,9.32-21.84,15.55-33.78,21.69l7.27,9.43a94.81,94.81,0,0,0,21-23.76c2.25-3.6-.62-9.5-5.18-9A21.35,21.35,0,0,0,56.82,40l9.42,7.28c3.42-6.58,9.49-11.14,17-11.74C89.47,35.09,92,25,84.83,23.8a42.38,42.38,0,0,0-26.5,3.9l6,10.36a48.68,48.68,0,0,1,12.37-4.82c.88-.2,5.47-1.59,6.18-.67-.13-.17-.58,1-1,1.78-1.57,3.23-3,6.4-2.33,10.09.68,3.51,4.11,6.26,2.33,10a6.09,6.09,0,0,0,5.18,9A12.49,12.49,0,0,1,98,72.7l10-5.84A44.34,44.34,0,0,0,91.1,56.53c-5.54-1.82-13.3-.59-18-4l-1.43,11a136.8,136.8,0,0,1,28.06-2.23c7.73.15,7.73-11.85,0-12a153.84,153.84,0,0,0-31.25,2.65c-5.57,1-5.2,8.26-1.43,11,5,3.57,10.73,3,16.45,4a31.12,31.12,0,0,1,16.08,8.41c4.25,4.08,11.7,0,10-5.84-3-10.39-11.75-17.17-22.4-18.05l5.18,9a18.57,18.57,0,0,0,2.11-9.91,16.5,16.5,0,0,0-.94-4.34c-.26-.71-2-3.32-2-4,0-1.71,2.22-4.4,2.76-6a11.66,11.66,0,0,0,0-8.21c-5.53-14.16-26.86-5.28-35.88-.33-6.82,3.75-.81,13.77,6,10.36a28.53,28.53,0,0,1,17.26-2.69l1.6-11.79c-11.63.93-21.92,7.22-27.36,17.68-3.14,6,4.34,12,9.42,7.27a7.78,7.78,0,0,1,4.6-2.24l-5.18-9A85,85,0,0,1,45.57,58.59C40,63,47.09,71,52.84,68,65.72,61.38,78.47,54.5,89.06,44.44c4.32-4.1-.14-11.73-5.84-10A68.34,68.34,0,0,0,70.4,39.73c-6,3.23-1.9,12.86,4.62,11l10.09-2.93c7.4-2.14,4.25-13.73-3.19-11.57Z"/><path class="cls-5" d="M100.29,85.64c-2.56,11.06-14.53,15.17-24.7,16-9.6.81-21.25-1.9-24.58-12.18-1.57-4.87-8.24-6-11-1.43q4.77-.61,2-2.79c-3.76-4.65-12,.35-10,5.83,2,5.76,4.34,12.8,8.56,17.35s12.3,4.81,18.12,5.59c7.07.94,7.56-9.69,1.59-11.79l-5.47-1.93c-4.7-1.65-8.12,3.27-7.38,7.38a19,19,0,0,0,10.9,13.68A25.6,25.6,0,0,0,68,123.62c3.72.18,7.46-1,11.14-.59,3.21.35,5.23,1,8.42-.1,3-1,5.7-1.18,8.82-1.62a28.87,28.87,0,0,0,17.09-9.09L103.18,108h-.07l9.42,7.27a31.71,31.71,0,0,0,3.57-10.4c.66-4.41-2.57-8.63-7.38-7.38a25.47,25.47,0,0,0-11.17,6.2l8.49,8.49a119,119,0,0,1,11-11h-8.49s-9.22,6.92-10.59,7.75a81.25,81.25,0,0,1-13.48,6.51c-4.62,1.74-9.72,3.82-14.67,4.24-5.41.47-9.92-2.49-14-5.65-2.1-1.61-1.69-2.48-2.7,1.28-1.07,4-.39,2.71,2.68,2.15,2.59-.47,5.2-.87,7.81-1.25,5.23-.74,10.48-1.36,15.71-2.1,10.68-1.52,21-3.83,30.87-8.18l-7.27-9.42a58.38,58.38,0,0,1-7.18,5.66c-6.41,4.26-.4,14.65,6,10.36a76.78,76.78,0,0,0,9.61-7.53c5.4-5-1.46-12-7.27-9.43-14.55,6.38-30.82,7.09-46.32,9.46-5.89.9-15.91,1.42-15.65,9.62.2,6.29,8.78,11.2,13.73,13.77,13.68,7.1,29.62.38,42.39-6,9.24-4.58,31-17.48,18.81-29.77a6.14,6.14,0,0,0-8.49,0,121.49,121.49,0,0,0-11,11c-5.07,5.79,2.77,13.77,8.49,8.49a12.69,12.69,0,0,1,5.87-3.12l-7.38-7.38a22.63,22.63,0,0,1-2.36,7.54c-3.12,5.87,4.52,12.29,9.43,7.27a11.91,11.91,0,0,0,3.58-8.5c.19-5.14-6.74-8-10.24-4.25A17.79,17.79,0,0,1,94,109.59c-2.06.29-4.16.28-6.2.68s-3.55,1.18-5.49,1.12a51,51,0,0,0-6.67-.28,58.15,58.15,0,0,1-6.84.52c-4.82-.14-8.93-2.11-9.82-7.13l-7.38,7.38,5.47,1.93L58.68,102c-3.21-.43-7.92-.39-10-2.88-2.48-2.92-3.84-7.72-5.08-11.25l-10,5.84c4.51,5.57,12.66,7.37,16.87.36l-11-1.43c10,30.79,65.26,27.15,72.42-3.84,1.73-7.51-9.83-10.72-11.57-3.19Z"/><path class="cls-6" d="M76.83,73.91a22.16,22.16,0,0,0,4.91-6.24c2.81-5.23-2.88-11.26-8.21-8.21A112.36,112.36,0,0,0,59,69.48c-5.11,4.09.6,11,5.84,10a31,31,0,0,0,3.86-.75l1.28-.24c1.58-.19.77-.76-2.42-1.73l-.6-4.62A16.34,16.34,0,0,0,66,76.72a6.08,6.08,0,0,0,6,6c5.72-.07,10.67-2.8,16.26-3.33L84,69.15a78.29,78.29,0,0,1-9,6c-6.81,4-.84,13.4,6.06,10.36l8-3.52L81.89,72.6l-6.55,6.25a6.1,6.1,0,0,0,0,8.48,7.07,7.07,0,0,0,3.29,2.24c2.65.72-.56-3.63-1.08-1.2-.9,4.27,2.77,8.83,7.38,7.38a28.83,28.83,0,0,0,10.82-6.16c4.57-4-.27-11.62-5.84-10a37.19,37.19,0,0,0-7.51,3.08l8.21,8.21,2.3-3c2.36-3.08-.19-8-3.59-8.81,2.2.54,1.66,1.56,2.61-1.28.48-1.44.93-2.88,1.28-4.35a66.38,66.38,0,0,0,1.39-8.75c.42-3.89-4.16-6.82-7.59-5.79a44.37,44.37,0,0,0-13,6.23c-3.77,2.66-3.93,7.73,0,10.36l1.9,1.28L73.17,70c-.84,2.77-3.2,5-4.72,7.41a58.58,58.58,0,0,0-4.4,9H75.62a49.3,49.3,0,0,0-3.11-7.29c-3.59-6.84-14-.78-10.36,6a29.84,29.84,0,0,1,1.9,4.43c2,6,9.35,5.36,11.57,0C78,83.71,82.9,79.2,84.74,73.17A6.13,6.13,0,0,0,82,66.4l-1.9-1.28V75.48a34.21,34.21,0,0,1,10.12-5l-7.6-5.78c-.87,8.09-9.2,22.82,3.53,25.95l-3.59-8.82-2.29,3c-3.91,5.09,3.42,10.79,8.21,8.21a21.67,21.67,0,0,1,4.64-1.87l-5.83-10a14.57,14.57,0,0,1-5.53,3.07l7.38,7.38c.64-3,.95-6-.59-8.88a8,8,0,0,0-2.63-2.92,4.58,4.58,0,0,0-2-1.08c-1.37-.51-1.38-.45,0,.17v8.48l6.55-6.25c5.28-5-1.42-12-7.28-9.42l-8,3.52,6.06,10.36a101.15,101.15,0,0,0,11.37-7.9c4-3.15.74-10.71-4.24-10.25-5.53.52-10.76,3.26-16.26,3.33l6,6c0,1.85,0,.57.35-.86a7.15,7.15,0,0,0-3.42-8.3c-4-2.33-9.18-.43-13.33.37l5.84,10a93.51,93.51,0,0,1,12.14-8.14l-8.21-8.21a12.46,12.46,0,0,1-3,3.81c-5.79,5.14,2.73,13.6,8.48,8.49Z"/></g></g></svg>