<svg xmlns="http://www.w3.org/2000/svg" width="300" height="300" viewBox="0 0 300 300"><defs><style>.cls-1,.cls-2{fill:#fff;}.cls-1,.cls-2,.cls-3{stroke:#fff;}.cls-2,.cls-3{stroke-miterlimit:10;}.cls-2{stroke-width:2px;}.cls-3{fill:none;}</style></defs><title>time-tickmarks</title><g id="Layer_1" data-name="Layer 1"><path class="cls-1" d="M23.4,148.29c0-.6,0-1.09,0-1.57h.93l.06,1h0a2.12,2.12,0,0,1,1.92-1.09c.8,0,2.05.48,2.05,2.47v3.46H27.28v-3.34c0-.94-.35-1.72-1.34-1.72a1.5,1.5,0,0,0-1.42,1.08,1.75,1.75,0,0,0-.07.49v3.49H23.4Z"/><path class="cls-1" d="M35.31,149.57a2.83,2.83,0,0,1-2.89,3.08,2.76,2.76,0,0,1-2.78-3,2.83,2.83,0,0,1,2.87-3.08A2.75,2.75,0,0,1,35.31,149.57Zm-4.61.06c0,1.27.74,2.23,1.77,2.23s1.76-.94,1.76-2.25c0-1-.49-2.23-1.74-2.23S30.7,148.53,30.7,149.63Z"/><path class="cls-1" d="M41.9,149.57A2.83,2.83,0,0,1,39,152.65a2.76,2.76,0,0,1-2.79-3,2.84,2.84,0,0,1,2.88-3.08A2.75,2.75,0,0,1,41.9,149.57Zm-4.61.06c0,1.27.73,2.23,1.76,2.23s1.77-.94,1.77-2.25c0-1-.49-2.23-1.74-2.23S37.29,148.53,37.29,149.63Z"/><path class="cls-1" d="M43.23,148.29c0-.6,0-1.09,0-1.57h.94l.06,1h0a2.12,2.12,0,0,1,1.92-1.09c.81,0,2.05.48,2.05,2.47v3.46H47.12v-3.34c0-.94-.35-1.72-1.35-1.72a1.5,1.5,0,0,0-1.41,1.08,1.45,1.45,0,0,0-.07.49v3.49H43.23Z"/><path class="cls-1" d="M134,47.38a2.79,2.79,0,0,0,1.39.42c.77,0,1.13-.38,1.13-.86s-.3-.78-1.08-1.07c-1-.37-1.54-.95-1.54-1.64a1.8,1.8,0,0,1,2-1.71,2.9,2.9,0,0,1,1.42.36l-.26.77a2.31,2.31,0,0,0-1.19-.34c-.62,0-1,.36-1,.8s.35.69,1.1,1c1,.38,1.53.89,1.53,1.75,0,1-.79,1.74-2.17,1.74a3.34,3.34,0,0,1-1.64-.4Z"/><path class="cls-1" d="M143.7,46.88c0,.6,0,1.12.05,1.58h-.94l-.06-1h0a2.19,2.19,0,0,1-1.92,1.08c-.91,0-2-.5-2-2.54V42.66h1.05v3.21c0,1.1.34,1.85,1.3,1.85a1.53,1.53,0,0,0,1.39-1,1.57,1.57,0,0,0,.1-.54V42.66h1Z"/><path class="cls-1" d="M145.46,44.23c0-.6,0-1.1-.05-1.57h.93l.06,1h0a2.14,2.14,0,0,1,1.92-1.09c.8,0,2.05.48,2.05,2.47v3.47h-1.06V45.11c0-.93-.34-1.71-1.34-1.71a1.5,1.5,0,0,0-1.42,1.08,1.75,1.75,0,0,0-.07.49v3.49h-1Z"/><path class="cls-1" d="M152.12,44.47c0-.69,0-1.27-.05-1.81H153l0,1.13h.05a1.73,1.73,0,0,1,1.6-1.27,1.28,1.28,0,0,1,.3,0v1a1.86,1.86,0,0,0-.36,0,1.47,1.47,0,0,0-1.41,1.35,2.57,2.57,0,0,0-.05.5v3.09h-1Z"/><path class="cls-1" d="M157.26,41a.62.62,0,0,1-.67.65A.63.63,0,0,1,156,41a.64.64,0,0,1,.66-.66A.62.62,0,0,1,157.26,41Zm-1.17,7.44v-5.8h1v5.8Z"/><path class="cls-1" d="M158.75,47.38a2.82,2.82,0,0,0,1.39.42c.77,0,1.13-.38,1.13-.86s-.3-.78-1.08-1.07c-1-.37-1.53-.95-1.53-1.64a1.79,1.79,0,0,1,2-1.71,2.94,2.94,0,0,1,1.43.36l-.27.77a2.31,2.31,0,0,0-1.19-.34c-.62,0-1,.36-1,.8s.35.69,1.11,1c1,.38,1.52.89,1.52,1.75,0,1-.79,1.74-2.17,1.74a3.3,3.3,0,0,1-1.63-.4Z"/><path class="cls-1" d="M164.24,45.75a1.85,1.85,0,0,0,2,2,3.75,3.75,0,0,0,1.6-.3l.18.76a4.63,4.63,0,0,1-1.93.36,2.7,2.7,0,0,1-2.85-2.93c0-1.75,1-3.13,2.72-3.13a2.46,2.46,0,0,1,2.4,2.74,2.81,2.81,0,0,1,0,.49Zm3.09-.76a1.5,1.5,0,0,0-1.46-1.71A1.74,1.74,0,0,0,164.25,45Z"/><path class="cls-1" d="M252.64,148.29c0-.6,0-1.09,0-1.57h.92l.05.93h0a2,2,0,0,1,1.82-1.07,1.71,1.71,0,0,1,1.64,1.17h0a2.33,2.33,0,0,1,.64-.76,2,2,0,0,1,1.29-.41c.77,0,1.9.51,1.9,2.52v3.42h-1v-3.28c0-1.12-.4-1.79-1.26-1.79a1.35,1.35,0,0,0-1.24,1,1.63,1.63,0,0,0-.09.53v3.58h-1V149c0-.92-.41-1.59-1.21-1.59a1.45,1.45,0,0,0-1.31,1.05,1.49,1.49,0,0,0-.08.52v3.5h-1Z"/><path class="cls-1" d="M263.82,145.09a.62.62,0,0,1-.67.64.63.63,0,0,1-.64-.64.64.64,0,0,1,.66-.66A.62.62,0,0,1,263.82,145.09Zm-1.17,7.43v-5.8h1.05v5.8Z"/><path class="cls-1" d="M270.47,144v7c0,.52,0,1.11,0,1.5h-.94l-.05-1h0a2.16,2.16,0,0,1-2,1.14c-1.41,0-2.49-1.18-2.49-3,0-1.93,1.19-3.12,2.61-3.12a2,2,0,0,1,1.75.89h0V144Zm-1.06,5.07a1.65,1.65,0,0,0-.05-.44,1.54,1.54,0,0,0-1.52-1.23c-1.09,0-1.74,1-1.74,2.25s.58,2.14,1.72,2.14a1.59,1.59,0,0,0,1.54-1.26,1.64,1.64,0,0,0,.05-.45Z"/><path class="cls-1" d="M272.22,148.29c0-.6,0-1.09-.05-1.57h.94l.06,1h0a2.13,2.13,0,0,1,1.92-1.1c.81,0,2.05.48,2.05,2.48v3.46h-1.05v-3.34c0-.94-.35-1.72-1.35-1.72a1.5,1.5,0,0,0-1.41,1.08,1.45,1.45,0,0,0-.07.49v3.49h-1.06Z"/><path class="cls-1" d="M280.06,145.09a.63.63,0,0,1-.68.64.62.62,0,0,1-.63-.64.64.64,0,0,1,.66-.66A.63.63,0,0,1,280.06,145.09Zm-1.18,7.43v-5.8h1.06v5.8Z"/><path class="cls-1" d="M286.69,146.72c0,.42-.05.88-.05,1.59v3.37a3.31,3.31,0,0,1-.83,2.65,3,3,0,0,1-2.11.7,3.78,3.78,0,0,1-1.93-.48l.27-.8a3.35,3.35,0,0,0,1.7.45c1.08,0,1.87-.56,1.87-2v-.64h0a2.08,2.08,0,0,1-1.85,1,2.6,2.6,0,0,1-2.47-2.83,2.79,2.79,0,0,1,2.61-3.09,1.92,1.92,0,0,1,1.81,1h0l0-.87ZM285.6,149a1.44,1.44,0,0,0-.06-.48,1.53,1.53,0,0,0-1.48-1.12c-1,0-1.72.85-1.72,2.2,0,1.14.57,2.08,1.71,2.08a1.52,1.52,0,0,0,1.46-1.08,1.56,1.56,0,0,0,.09-.56Z"/><path class="cls-1" d="M288.4,144h1.05v3.62h0a1.93,1.93,0,0,1,.75-.75,2.29,2.29,0,0,1,1.08-.3c.78,0,2,.48,2,2.49v3.45h-1.06v-3.33c0-.94-.34-1.73-1.34-1.73a1.53,1.53,0,0,0-1.42,1.06,1.26,1.26,0,0,0-.07.5v3.5H288.4Z"/><path class="cls-1" d="M296.28,145.05v1.67h1.51v.8h-1.51v3.13c0,.72.2,1.13.79,1.13a2.6,2.6,0,0,0,.61-.07l.05.79a2.69,2.69,0,0,1-.94.14,1.43,1.43,0,0,1-1.13-.44,2.15,2.15,0,0,1-.41-1.51v-3.17h-.9v-.8h.9v-1.39Z"/><path class="cls-1" d="M135.35,256.08a2.79,2.79,0,0,0,1.39.42c.77,0,1.13-.39,1.13-.87s-.3-.78-1.08-1.07c-1-.37-1.53-.94-1.53-1.64a1.79,1.79,0,0,1,2-1.7,2.94,2.94,0,0,1,1.43.36l-.27.77a2.22,2.22,0,0,0-1.19-.34c-.62,0-1,.36-1,.79s.35.7,1.11,1c1,.38,1.52.88,1.52,1.75,0,1-.79,1.74-2.17,1.74a3.3,3.3,0,0,1-1.63-.4Z"/><path class="cls-1" d="M145.1,255.57c0,.6,0,1.13.05,1.59h-.93l-.06-1h0a2.16,2.16,0,0,1-1.92,1.08c-.91,0-2-.51-2-2.55v-3.39h1.06v3.21c0,1.11.33,1.85,1.29,1.85a1.5,1.5,0,0,0,1.49-1.5v-3.56h1Z"/><path class="cls-1" d="M146.86,252.92c0-.6,0-1.09-.05-1.57h.94l.06,1h0a2.14,2.14,0,0,1,1.92-1.09c.8,0,2.05.48,2.05,2.47v3.47h-1.05v-3.35c0-.94-.35-1.72-1.35-1.72a1.51,1.51,0,0,0-1.41,1.08,1.55,1.55,0,0,0-.07.5v3.49h-1.06Z"/><path class="cls-1" d="M153.38,256.08a2.79,2.79,0,0,0,1.39.42c.76,0,1.12-.39,1.12-.87s-.3-.78-1.08-1.07c-1-.37-1.53-.94-1.53-1.64a1.79,1.79,0,0,1,2-1.7,2.91,2.91,0,0,1,1.43.36l-.26.77a2.22,2.22,0,0,0-1.19-.34c-.63,0-1,.36-1,.79s.34.7,1.1,1c1,.38,1.52.88,1.52,1.75,0,1-.79,1.74-2.17,1.74a3.33,3.33,0,0,1-1.63-.4Z"/><path class="cls-1" d="M158.86,254.44a1.86,1.86,0,0,0,2,2,3.8,3.8,0,0,0,1.61-.3l.18.76a4.88,4.88,0,0,1-1.93.36,2.7,2.7,0,0,1-2.86-2.93c0-1.75,1-3.13,2.72-3.13A2.46,2.46,0,0,1,163,254a4.49,4.49,0,0,1,0,.49Zm3.09-.75a1.5,1.5,0,0,0-1.46-1.72,1.76,1.76,0,0,0-1.62,1.72Z"/><path class="cls-1" d="M165.55,249.68v1.67h1.52v.8h-1.52v3.13c0,.72.21,1.13.8,1.13a2.21,2.21,0,0,0,.61-.07l0,.79a2.7,2.7,0,0,1-.94.15,1.46,1.46,0,0,1-1.14-.45,2.15,2.15,0,0,1-.41-1.51v-3.17h-.9v-.8h.9V250Z"/><line class="cls-2" x1="150" y1="246" x2="150" y2="234"/><line class="cls-2" x1="246" y1="150" x2="234" y2="150"/><line class="cls-2" x1="54" y1="150" x2="66" y2="150"/><line class="cls-2" x1="150" y1="54" x2="150" y2="66"/></g><g id="Layer_2" data-name="Layer 2"><line class="cls-3" x1="126.71" y1="63.07" x2="128.26" y2="68.86"/><line class="cls-3" x1="105" y1="72.06" x2="108" y2="77.25"/><line class="cls-3" x1="86.36" y1="86.36" x2="90.6" y2="90.6"/><line class="cls-3" x1="72.06" y1="105" x2="77.25" y2="108"/><line class="cls-3" x1="63.07" y1="126.71" x2="68.86" y2="128.26"/><line class="cls-3" x1="63.07" y1="173.29" x2="68.86" y2="171.74"/><line class="cls-3" x1="72.06" y1="195" x2="77.25" y2="192"/><line class="cls-3" x1="86.36" y1="213.64" x2="90.6" y2="209.4"/><line class="cls-3" x1="105" y1="227.94" x2="108" y2="222.75"/><line class="cls-3" x1="126.71" y1="236.93" x2="128.26" y2="231.14"/><line class="cls-3" x1="173.29" y1="236.93" x2="171.74" y2="231.14"/><line class="cls-3" x1="213.64" y1="213.64" x2="209.4" y2="209.4"/><line class="cls-3" x1="227.94" y1="195" x2="222.75" y2="192"/><line class="cls-3" x1="236.93" y1="173.29" x2="231.14" y2="171.74"/><line class="cls-3" x1="236.93" y1="126.71" x2="231.14" y2="128.26"/><line class="cls-3" x1="227.94" y1="105" x2="222.75" y2="108"/><line class="cls-3" x1="213.64" y1="86.36" x2="209.4" y2="90.6"/><line class="cls-3" x1="195" y1="72.06" x2="192" y2="77.25"/><line class="cls-3" x1="173.29" y1="63.07" x2="171.74" y2="68.86"/><line class="cls-3" x1="195" y1="227.94" x2="192" y2="222.75"/></g></svg>