<svg id="Layer_2" data-name="Layer 2" xmlns="http://www.w3.org/2000/svg" width="250" height="320" viewBox="0 0 250 320"><defs><style>.cls-1{fill:#fff;}</style></defs><title>Untitled-1</title><path class="cls-1" d="M176.93,270l-13.77-14.13c-5.36-5.5-13.78,2.92-8.42,8.41l4.08,4.2a85.53,85.53,0,0,1-23-4.73c-7.24-2.54-10.36,9-3.16,11.48a93.39,93.39,0,0,0,17,4.26L145,281.83c-6.84,3.46-.82,13.73,6,10.28L173,281a6,6,0,0,0,1.86-1.44C178.46,278,180.18,273.32,176.93,270Z"/><path class="cls-1" d="M79.31,235.15a32.69,32.69,0,0,1-11.21-8l4.31.67c3.17.5,6.4-.81,7.32-4.15.78-2.83-1-6.83-4.16-7.33L60.62,214a7.63,7.63,0,0,0-3.9.39c-3.35-.57-7,1.3-6.73,5.62a70.41,70.41,0,0,1-.84,17.4c-1.35,7.49,10.13,10.7,11.49,3.16q.3-1.69.54-3.39a41.29,41.29,0,0,0,12.12,8.26c2.93,1.3,6.39.85,8.14-2.14C82.93,240.76,82.26,236.46,79.31,235.15Z"/><path class="cls-1" d="M200.5,128.71A30.48,30.48,0,0,0,187,115.82c-5.54-2.68-10.54,3.48-8.64,7.72a77.81,77.81,0,0,1-16.63-6.15c-6.82-3.46-12.86,6.81-6,10.28a93.27,93.27,0,0,0,14.46,5.88c-6.71,2.9-3.63,14,3.45,11.36a60.31,60.31,0,0,1,19.35-4,5.67,5.67,0,0,0,5.38-4A6.19,6.19,0,0,0,200.5,128.71Z"/><path class="cls-1" d="M142.27,66.72a72.36,72.36,0,0,1-8.31-9.6,6.84,6.84,0,0,0-4.33-2.84A5.52,5.52,0,0,0,128,52.86c-2.56-1.5-6.79-.8-8.14,2.13L112,72.06c-1.34,2.92-.82,6.41,2.14,8.15,2.57,1.5,6.79.8,8.15-2.14l.14-.31a65.08,65.08,0,0,0,3.85,14.82c2.74,7.06,14.26,4,11.48-3.17a58.22,58.22,0,0,1-3.57-14,5.94,5.94,0,0,0,8.08-8.69Z"/></svg>